<svg id="Capa_1" enable-background="new 0 0 509.985 509.985" height="512" viewBox="0 0 509.985 509.985" width="512"
     xmlns="http://www.w3.org/2000/svg">
    <g fill="#7D5A5A">
        <path d="m495.407 231.088c-17.778-17.133-45.239-17.956-64.003-1.966l-101.434 80.941c-.606-24.288-20.537-43.863-44.97-43.863h-56.46c-1.244-.376-38.923-22.579-89.471-11.474-17.728 3.894-34.432 11.39-49.069 21.839v-40.365h-90v270h90v-37.323c35.008-24.34 77.326-37.677 120-37.677h58.204c63.155 0 123.586-25.397 167.806-70.682l58.642-60.057c20.125-18.57 20.502-50.34.755-69.373zm-435.407 245.112h-30v-210h30zm414.168-197.659c-67.689 69.272-58.82 60.197-59.623 61.018-38.25 39.174-91.589 61.641-146.341 61.641h-58.204c-41.991 0-83.684 11.296-120 32.19v-116.71c30.846-34.857 82.234-45.094 124.2-24.109l7.26 3.629h63.54c8.272 0 15 6.728 15 15 0 8.27-6.728 15-15 15h-105v30h140.251c1.746-1.394-17.602 14.048 130.518-104.163 6.959-6.01 17.2-5.729 23.82.652 3.568 3.439 5.489 8.063 5.409 13.019-.081 4.955-2.151 9.513-5.83 12.833z"/>
        <path d="m240.841 230.904 73.796-33.752 73.796 33.752-9.296-80.613 54.903-59.755-79.54-16.07-39.863-70.682-39.863 70.682-79.54 16.069 54.903 59.755zm53.323-129.749 20.473-36.301 20.473 36.301 40.851 8.253-28.198 30.688 4.774 41.4-37.899-17.334-37.899 17.334 4.774-41.4-28.198-30.688z"/>
    </g>
</svg>
